<svg width="1280" height="720" xmlns="http://www.w3.org/2000/svg" xmlns:xlink="http://www.w3.org/1999/xlink" overflow="hidden"><defs><clipPath id="clip0"><path d="M0 0 1280 0 1280 720 0 720Z" fill-rule="evenodd" clip-rule="evenodd"/></clipPath></defs><g clip-path="url(#clip0)"><rect x="0" y="0" width="1280" height="720" fill="#FFFFFF"/><path d="M238.5 370.5C238.5 332.945 268.721 302.5 306 302.5 343.279 302.5 373.5 332.945 373.5 370.5 373.5 408.055 343.279 438.5 306 438.5 268.721 438.5 238.5 408.055 238.5 370.5Z" stroke="#4472C4" stroke-miterlimit="8" fill="#FFFFFF" fill-rule="evenodd"/><text fill="#0451A5" font-family="Consolas,Consolas_MSFontService,sans-serif" font-weight="400" font-size="13" transform="translate(283.597 367)">type = <tspan fill="#C00000" x="7.33331" y="16">room</tspan></text><path d="M517.5 125C517.5 87.7208 547.721 57.5001 585 57.5001 622.279 57.5001 652.5 87.7208 652.5 125 652.5 162.279 622.279 192.5 585 192.5 547.721 192.5 517.5 162.279 517.5 125Z" stroke="#70AD47" stroke-width="3" stroke-miterlimit="8" stroke-dasharray="12 9 3 9" fill="#FFFFFF" fill-rule="evenodd"/><path d="M0.316907-0.386743 178.295 145.453 177.661 146.227-0.316907 0.386743ZM179.482 141.901 183.135 150.065 174.412 148.089Z" fill="#4472C4" transform="matrix(1 0 0 -1 353.5 322.565)"/><path d="M517.5 370.5C517.5 332.945 547.721 302.5 585 302.5 622.279 302.5 652.5 332.945 652.5 370.5 652.5 408.055 622.279 438.5 585 438.5 547.721 438.5 517.5 408.055 517.5 370.5Z" stroke="#70AD47" stroke-width="3" stroke-miterlimit="8" stroke-dasharray="12 9 3 9" fill="#FFFFFF" fill-rule="evenodd"/><path d="M796.5 370.5C796.5 332.945 826.721 302.5 864 302.5 901.279 302.5 931.5 332.945 931.5 370.5 931.5 408.055 901.279 438.5 864 438.5 826.721 438.5 796.5 408.055 796.5 370.5Z" stroke="#70AD47" stroke-width="3" stroke-miterlimit="8" stroke-dasharray="12 9 3 9" fill="#FFFFFF" fill-rule="evenodd"/><path d="M796.5 587C796.5 549.721 826.721 519.5 864 519.5 901.279 519.5 931.5 549.721 931.5 587 931.5 624.279 901.279 654.5 864 654.5 826.721 654.5 796.5 624.279 796.5 587Z" stroke="#70AD47" stroke-width="3" stroke-miterlimit="8" stroke-dasharray="12 9 3 9" fill="#FFFFFF" fill-rule="evenodd"/><path d="M373.5 370 510.306 370 510.306 371 373.5 371ZM508.973 366.5 516.973 370.5 508.973 374.5Z" fill="#4472C4"/><path d="M652.5 370 789.306 370 789.306 371 652.5 371ZM787.973 366.5 795.973 370.5 787.973 374.5Z" fill="#4472C4"/><path d="M632.775 418.082 810.341 534.908 809.791 535.743 632.225 418.918ZM811.15 531.251 815.635 538.99 806.753 537.934Z" fill="#4472C4"/></g></svg>