<svg width="1280" height="720" xmlns="http://www.w3.org/2000/svg" xmlns:xlink="http://www.w3.org/1999/xlink" overflow="hidden"><defs><clipPath id="clip0"><path d="M0 0 1280 0 1280 720 0 720Z" fill-rule="evenodd" clip-rule="evenodd"/></clipPath></defs><g clip-path="url(#clip0)"><rect x="0" y="0" width="1280" height="720" fill="#FFFFFF"/><path d="M977.5 371.5C977.5 333.945 1007.72 303.5 1045 303.5 1082.28 303.5 1112.5 333.945 1112.5 371.5 1112.5 409.055 1082.28 439.5 1045 439.5 1007.72 439.5 977.5 409.055 977.5 371.5Z" stroke="#4472C4" stroke-miterlimit="8" fill="#FFFFFF" fill-rule="evenodd"/><path d="M151.5 371.5C151.5 333.945 181.721 303.5 219 303.5 256.279 303.5 286.5 333.945 286.5 371.5 286.5 409.055 256.279 439.5 219 439.5 181.721 439.5 151.5 409.055 151.5 371.5Z" stroke="#4472C4" stroke-miterlimit="8" fill="#FFFFFF" fill-rule="evenodd"/><text fill="#0451A5" font-family="Consolas,Consolas_MSFontService,sans-serif" font-weight="400" font-size="13" transform="translate(196.495 368)">type = <tspan fill="#C00000" x="7.33334" y="16">room</tspan><tspan x="817.365" y="8">green &gt; </tspan><tspan fill="#A31515" x="883.365" y="8">9</tspan><tspan fill="#000000" font-family="Calibri,Calibri_MSFontService,sans-serif" font-size="24" x="196.895" y="-16">sensors</tspan></text><path d="M564.5 371.5C564.5 333.945 594.721 303.5 632 303.5 669.279 303.5 699.5 333.945 699.5 371.5 699.5 409.055 669.279 439.5 632 439.5 594.721 439.5 564.5 409.055 564.5 371.5Z" stroke="#4472C4" stroke-miterlimit="8" stroke-dasharray="4 3 1 3" fill="#FFFFFF" fill-rule="evenodd"/><text font-family="Calibri,Calibri_MSFontService,sans-serif" font-weight="400" font-size="24" transform="translate(818.118 352)">marker</text><path d="M1.89094e-07-0.5 270.938-0.499898 270.938 0.500102-1.89094e-07 0.5ZM269.605-3.9999 277.605 0.000104987 269.605 4.0001Z" fill="#4472C4" transform="matrix(1 0 0 -1 286.5 371.5)"/><path d="M699.5 371 970.438 371 970.438 372 699.5 372ZM969.105 367.5 977.105 371.5 969.105 375.5Z" fill="#4472C4"/><text fill="#C9C9C9" font-family="Calibri,Calibri_MSFontService,sans-serif" font-weight="400" font-size="24" transform="translate(300.127 406)">outgoing</text></g></svg>