<svg width="1280" height="720" xmlns="http://www.w3.org/2000/svg" xmlns:xlink="http://www.w3.org/1999/xlink" overflow="hidden"><defs><clipPath id="clip0"><path d="M0 0 1280 0 1280 720 0 720Z" fill-rule="evenodd" clip-rule="evenodd"/></clipPath></defs><g clip-path="url(#clip0)"><rect x="0" y="0" width="1280" height="720" fill="#FFFFFF"/><path d="M354.5 337C354.5 299.721 384.721 269.5 422 269.5 459.279 269.5 489.5 299.721 489.5 337 489.5 374.279 459.279 404.5 422 404.5 384.721 404.5 354.5 374.279 354.5 337Z" stroke="#4472C4" stroke-miterlimit="8" fill="#FFFFFF" fill-rule="evenodd"/><text fill="#0451A5" font-family="Consolas,Consolas_MSFontService,sans-serif" font-weight="400" font-size="13" transform="translate(399.647 334)">type = <tspan fill="#C00000" x="0" y="16">sensor</tspan><tspan fill="#000000" font-family="Calibri,Calibri_MSFontService,sans-serif" font-size="24" x="196.895" y="-16">sensors</tspan></text><path d="M1.87449e-07-0.5 273.375-0.499898 273.375 0.500102-1.87449e-07 0.5ZM272.042-3.9999 280.042 0.000104987 272.042 4.0001Z" fill="#4472C4" transform="matrix(-1 -8.74228e-08 -8.74228e-08 1 769.542 337.5)"/><path d="M769.5 337C769.5 299.721 799.945 269.5 837.5 269.5 875.055 269.5 905.5 299.721 905.5 337 905.5 374.279 875.055 404.5 837.5 404.5 799.945 404.5 769.5 374.279 769.5 337Z" stroke="#4472C4" stroke-miterlimit="8" fill="#FFFFFF" fill-rule="evenodd"/><text fill="#0451A5" font-family="Consolas,Consolas_MSFontService,sans-serif" font-weight="400" font-size="13" transform="translate(786.562 333)">name contains <tspan x="0" y="16">"</tspan><tspan fill="#C00000" x="7.33331" y="16">Room</tspan><tspan x="36.6666" y="16">"</tspan><tspan fill="#C9C9C9" font-family="Calibri,Calibri_MSFontService,sans-serif" font-size="24" x="-287.607" y="37">incoming</tspan></text></g></svg>