<svg width="1280" height="720" xmlns="http://www.w3.org/2000/svg" xmlns:xlink="http://www.w3.org/1999/xlink" overflow="hidden"><defs><clipPath id="clip0"><path d="M0 0 1280 0 1280 720 0 720Z" fill-rule="evenodd" clip-rule="evenodd"/></clipPath></defs><g clip-path="url(#clip0)"><rect x="0" y="0" width="1280" height="720" fill="#FFFFFF"/><rect x="543.5" y="61.5001" width="176" height="34" stroke="#2F528F" stroke-miterlimit="8" fill="#4472C4"/><text fill="#FFFFFF" font-family="Consolas,Consolas_MSFontService,sans-serif" font-weight="400" font-size="24" transform="translate(604.859 87)">Room</text><rect x="392.5" y="216.5" width="175" height="34" stroke="#2F528F" stroke-miterlimit="8" fill="#4472C4"/><text fill="#FFFFFF" font-family="Consolas,Consolas_MSFontService,sans-serif" font-weight="400" font-size="24" transform="translate(426.937 241)">Sensor 0</text><rect x="710.5" y="216.5" width="176" height="34" stroke="#2F528F" stroke-miterlimit="8" fill="#4472C4"/><text fill="#FFFFFF" font-family="Consolas,Consolas_MSFontService,sans-serif" font-weight="400" font-size="24" transform="translate(745.397 241)">Sensor 1</text><rect x="392.5" y="401.5" width="175" height="30" stroke="#2F528F" stroke-miterlimit="8" fill="#4472C4"/><text fill="#FFFFFF" font-family="Consolas,Consolas_MSFontService,sans-serif" font-weight="400" font-size="24" transform="translate(440.12 425)">Marker</text><rect x="710.5" y="401.5" width="176" height="30" stroke="#2F528F" stroke-miterlimit="8" fill="#4472C4"/><text fill="#FFFFFF" font-family="Consolas,Consolas_MSFontService,sans-serif" font-weight="400" font-size="24" transform="translate(758.564 425)">Marker</text><path d="M0.312104-0.390629 146.693 116.564 146.069 117.346-0.312104 0.390629ZM147.836 112.998 151.589 121.117 142.842 119.248Z" fill="#4472C4" transform="matrix(-1 -8.74228e-08 -8.74228e-08 1 632.089 95.5001)"/><path d="M631.794 95.0954 793.27 212.296 792.682 213.105 631.206 95.9047ZM794.247 208.68 798.371 216.617 789.547 215.155Z" fill="#4472C4"/><path d="M481 250.5 481.016 395.079 480.016 395.079 480 250.5ZM484.515 393.746 480.516 401.746 476.515 393.746Z" fill="#4472C4"/><path d="M799 250.5 799 395.079 798 395.079 798 250.5ZM802.5 393.746 798.5 401.746 794.5 393.746Z" fill="#4472C4"/><text font-family="Consolas,Consolas_MSFontService,sans-serif" font-weight="400" font-size="13" transform="translate(157.081 234)">{<tspan fill="#0451A5" x="29.3333" y="16">"id"</tspan><tspan x="58.6667" y="16">:</tspan><tspan fill="#A31515" x="73.3333" y="16">"sensor:0"</tspan>,<tspan fill="#0451A5" x="29.3333" y="33">"type"</tspan>:<tspan fill="#A31515" x="88" y="33">"sensor"</tspan><tspan x="146.667" y="33">,</tspan><tspan fill="#0451A5" x="29.3333" y="50">"name"</tspan>:<tspan fill="#A31515" x="88" y="50">"Entity</tspan><tspan fill="#A31515" x="146.667" y="50">sensor</tspan><tspan fill="#A31515" x="198" y="50">0"</tspan><tspan x="212.667" y="50">,</tspan><tspan fill="#0451A5" x="29.3333" y="67">"temperature"</tspan>:<tspan fill="#09885A" x="139.333" y="67">64.44</tspan><tspan x="176" y="67">,</tspan><tspan fill="#0451A5" x="29.3333" y="84">"humidity"</tspan><tspan x="102.667" y="84">:</tspan><tspan fill="#09885A" x="117.333" y="84">14.65</tspan><tspan x="154" y="84">,</tspan><tspan fill="#0451A5" x="29.3333" y="100">"pressure"</tspan><tspan x="102.667" y="100">:</tspan><tspan fill="#09885A" x="117.333" y="100">957.1</tspan><tspan x="0" y="117">}</tspan><tspan x="570.806" y="-163">{</tspan><tspan fill="#0451A5" x="600.14" y="-146">"id"</tspan><tspan x="636.806" y="-146">:</tspan><tspan fill="#A31515" x="651.473" y="-146">"room:0"</tspan>,<tspan fill="#0451A5" x="600.14" y="-129">"name"</tspan><tspan x="651.473" y="-129">:</tspan><tspan fill="#A31515" x="666.14" y="-129">"Room</tspan><tspan fill="#A31515" x="710.14" y="-129">Zero"</tspan>,<tspan fill="#0451A5" x="600.14" y="-113">"type"</tspan><tspan x="651.473" y="-113">:</tspan><tspan fill="#A31515" x="666.14" y="-113">"room"</tspan>,<tspan fill="#0451A5" x="600.14" y="-96">"</tspan><tspan fill="#0451A5" x="607.473" y="-96">description</tspan><tspan fill="#0451A5" x="688.14" y="-96">"</tspan><tspan x="702.806" y="-96">:</tspan><tspan fill="#A31515" x="717.473" y="-96">"Has</tspan><tspan fill="#A31515" x="754.14" y="-96">two</tspan><tspan fill="#A31515" x="783.473" y="-96">sensors"</tspan><tspan x="570.806" y="-79">}</tspan><tspan x="741.933" y="-7">{</tspan><tspan fill="#0451A5" x="771.266" y="10">"id"</tspan>:<tspan fill="#A31515" x="815.266" y="10">"sensor:1"</tspan><tspan x="888.599" y="10">,</tspan><tspan fill="#0451A5" x="771.266" y="27">"type"</tspan>:<tspan fill="#A31515" x="829.933" y="27">"sensor"</tspan>,<tspan fill="#0451A5" x="771.266" y="44">"name"</tspan>:<tspan fill="#A31515" x="829.933" y="44">"Entity</tspan><tspan fill="#A31515" x="888.599" y="44">sensor</tspan><tspan fill="#A31515" x="939.933" y="44">1"</tspan><tspan x="954.599" y="44">,</tspan><tspan fill="#0451A5" x="771.266" y="61">"temperature"</tspan>:<tspan fill="#09885A" x="881.266" y="61">65.86</tspan><tspan x="917.933" y="61">,</tspan><tspan fill="#0451A5" x="771.266" y="78">"humidity"</tspan>:<tspan fill="#09885A" x="859.266" y="78">12.29</tspan><tspan x="895.933" y="78">,</tspan><tspan fill="#0451A5" x="771.266" y="94">"pressure"</tspan>:<tspan fill="#09885A" x="859.266" y="94">945.19</tspan><tspan x="741.933" y="111">}</tspan><tspan x="552.734" y="221">{</tspan><tspan fill="#0451A5" x="582.067" y="238">"status"</tspan><tspan x="640.734" y="238">:</tspan><tspan fill="#A31515" x="655.401" y="238">"stopped"</tspan>,<tspan fill="#0451A5" x="582.067" y="255">"red"</tspan><tspan x="618.734" y="255">:</tspan><tspan fill="#09885A" x="633.401" y="255">9.95</tspan>,<tspan fill="#0451A5" x="582.067" y="272">"blue"</tspan>:<tspan fill="#09885A" x="640.734" y="272">7.16</tspan><tspan x="670.067" y="272">,</tspan><tspan fill="#0451A5" x="582.067" y="289">"green"</tspan>:<tspan fill="#09885A" x="648.067" y="289">2.02</tspan><tspan x="552.734" y="306">}</tspan><tspan x="234.958" y="222">{</tspan><tspan fill="#0451A5" x="264.292" y="239">"status"</tspan>:<tspan fill="#A31515" x="337.625" y="239">"running"</tspan>,<tspan fill="#0451A5" x="264.292" y="256">"red"</tspan>:<tspan fill="#09885A" x="315.625" y="256">9.12</tspan>,<tspan fill="#0451A5" x="264.292" y="273">"blue"</tspan>:<tspan fill="#09885A" x="322.958" y="273">4.53</tspan>,<tspan fill="#0451A5" x="264.292" y="290">"green"</tspan><tspan x="315.625" y="290">:</tspan><tspan fill="#09885A" x="330.292" y="290">9.85</tspan><tspan x="234.958" y="307">}</tspan></text></g></svg>